# xmcd
#
# Track frame offsets:
#	150
#	10248
#	21181
#	33541
#	42618
#	55397
#	66106
#	84043
#	94723
#	108119
#	126053
#	135575
#	147496
#	160405
#	168888
#	186684
#	201722
#	219242
#
# Disc length: 3056 seconds
# Revision: 1
# Processed by: cddbd v1.5.2PL0 Copyright (c) Steve Scherf et al.
# Submitted via: dBpowerAMP V12.0
#
DISCID=040bee12
DTITLE=Don Costa - Travelin Man
DYEAR=1900
DGENRE=Country
TTITLE0=Travelin Man
TTITLE1=Pretty Papers
TTITLE2=Your Cheatin Heart
TTITLE3=I Got Stripes
TTITLE4=Crystal Chandeliers
TTITLE5=Six Days on The Road
TTITLE6=She Still Thinks I Care
TTITLE7=Walk On By
TTITLE8=Put Your Hand in The Hand
TTITLE9=Mexican Girl
TTITLE10=That'll Be The Day
TTITLE11=Roses Are Red
TTITLE12=Walk A Country Mile
TTITLE13=Kiss An Angel Good Morning
TTITLE14=The Last Farewell
TTITLE15=Touch The Morning
TTITLE16=A Pirate Looks at 40
TTITLE17=Oh Boy
EXTD=
EXTT0=
EXTT1=
EXTT2=
EXTT3=
EXTT4=
EXTT5=
EXTT6=
EXTT7=
EXTT8=
EXTT9=
EXTT10=
EXTT11=
EXTT12=
EXTT13=
EXTT14=
EXTT15=
EXTT16=
EXTT17=
PLAYORDER=
